<?xml version="1.0" encoding="UTF-8"?>
<svg width="375px" height="266px" viewBox="0 0 375 266" version="1.1" xmlns="http://www.w3.org/2000/svg" xmlns:xlink="http://www.w3.org/1999/xlink">
    <!-- Generator: Sketch 53.2 (72643) - https://sketchapp.com -->
    <title>map/Columbia</title>
    <desc>Created with Sketch.</desc>
    <g id="map/Columbia" stroke="none" stroke-width="1" fill="black" fill-rule="evenodd">
        <path d="M280.322826,132.497274 C279.19837,131.349183 278.055006,130.218818 276.941778,129.060682 C270.293722,122.144956 263.351406,115.515809 256.907797,108.39859 C254.594479,105.843009 252.076124,103.472375 249.63872,101.030245 C244.296522,95.6768198 238.925371,90.3529393 233.605036,84.9782426 C226.356049,77.6548047 219.11829,70.3207309 211.924847,62.9429315 C207.438842,58.3417043 202.855932,53.8362005 198.475696,49.1280229 C194.873066,45.2559487 191.050626,41.5883209 187.326864,37.8291058 C185.9631,36.4529329 184.643061,35.03008 183.233208,33.7029507 C179.790708,30.4613515 176.545563,27.0253509 173.229512,23.6590748 C170.443486,20.8310957 167.665141,17.995435 164.724303,15.3264041 C164.250413,14.8962393 164.095601,14.8867851 163.666618,15.3246315 C163.005416,15.999423 162.38735,16.7167583 161.717876,17.3826865 C158.534184,20.5474705 155.312675,23.6750288 152.1538,26.8640391 C144.637142,34.4527847 137.148256,42.0698927 129.647553,49.6745922 C127.125062,52.2319457 124.596661,54.7833903 122.077125,57.3436983 C118.662396,60.8139702 115.258303,64.2942872 111.838257,67.7592412 C111.208372,68.3973978 110.521763,68.9800111 109.865289,69.5921688 C109.070548,70.3331395 108.259262,71.0575654 107.49111,71.8257169 C103.347819,75.9695986 99.2133918,80.1217527 95.0842823,84.2798156 C94.754568,84.6124843 94.4874877,85.007196 94.1949992,85.3759087 C93.9261462,85.715668 93.9556905,86.0542455 94.1595461,86.4265035 C94.7734764,87.5444593 95.3667256,88.6742329 95.9676564,89.7992793 C96.3676861,90.5467498 96.7937147,91.2759028 96.9851617,92.1238238 C97.0761581,92.526217 97.2551965,92.9752902 97.5400034,93.25537 C98.4310591,94.1328354 98.9534021,95.2596545 99.6908275,96.2375704 C100.747922,97.6385604 102.021281,98.8351041 103.263323,100.062374 C104.51541,101.299098 105.638683,102.642772 106.26384,104.305524 C106.55042,105.067767 106.926223,105.760285 107.358752,106.432713 C107.958501,107.365722 108.314805,108.396226 108.394574,109.482865 C108.450709,110.253971 108.779241,110.802904 109.26554,111.351246 C109.961013,112.137124 110.834342,112.712056 111.585357,113.430573 C113.223884,114.999965 114.894908,116.535086 116.539934,118.097388 C117.13082,118.658139 117.784931,119.091258 118.539492,119.407382 C120.848673,120.375253 123.166127,121.326579 125.43631,122.379537 C126.641717,122.937924 127.870168,123.157143 129.152391,123.033057 C130.410977,122.910744 131.588022,123.145325 132.753839,123.561309 C133.420358,123.799436 134.086286,124.04229 134.763442,124.247918 C135.488458,124.467728 136.221748,124.653266 136.992263,124.435229 C137.26407,124.358414 137.565422,124.323551 137.825411,124.463591 C138.406252,124.77617 139.014274,125.060977 139.533662,125.458643 C140.103867,125.895898 140.474352,126.477921 140.471989,127.273253 C140.470216,127.981725 140.662254,128.680743 140.928152,129.33899 C141.370135,130.43331 141.832799,131.52054 142.330324,132.591225 C142.570815,133.108841 142.803624,133.626456 142.90762,134.183071 C143.028751,134.833045 143.151655,135.464111 143.48137,136.060315 C143.677544,136.415437 143.796312,136.870419 143.53514,137.279312 C143.142792,137.895606 143.378556,138.453993 143.656272,139.018289 C144.989901,141.729273 146.428708,144.387668 147.654205,147.153604 C148.255727,148.510868 148.604349,148.637318 150.080973,148.495505 C150.175514,148.486642 150.269465,148.465961 150.362825,148.467734 C151.417556,148.484869 152.305657,148.756086 152.777775,149.841543 C152.981631,150.309524 153.323754,150.719008 153.617424,151.145628 C154.959916,153.094369 154.906146,152.73511 154.644974,154.779575 C154.475981,156.100796 155.026095,157.179753 155.694978,158.220894 C155.98333,158.668785 156.443039,159.012681 157.007335,158.901594 C157.698081,158.765099 158.373463,158.534654 159.0388,158.297709 C159.304699,158.203167 159.59246,157.902406 159.503827,157.650689 C159.229066,156.865993 159.671048,155.95662 158.990939,155.232194 C158.639362,154.858163 158.813082,154.445725 159.268655,154.204052 C159.648594,154.00256 159.999581,154.044513 160.30625,154.345865 C161.278257,155.300145 162.361942,156.118522 163.237044,157.198661 C164.940567,159.300442 166.03016,161.676984 166.767586,164.239065 C166.975578,164.961718 167.060665,165.72337 166.973214,166.484431 C166.919444,166.95123 166.694316,167.279763 166.193245,167.354805 C165.355369,167.481255 164.53522,167.740063 163.671935,167.676838 C163.439127,167.659702 163.20159,167.679202 162.969372,167.708155 C162.907329,167.716428 162.817515,167.821014 162.813379,167.885421 C162.808651,167.960463 162.868922,168.088686 162.929192,168.109367 C163.484625,168.29845 163.874018,168.720933 164.32191,169.063647 C164.697713,169.351999 164.938204,169.28582 165.2496,168.859791 C165.303962,168.78534 165.315189,168.67898 165.371914,168.606892 C165.625404,168.286632 166.111703,168.154865 166.506414,168.299041 C166.839083,168.420763 166.826674,168.729797 166.866855,169.004558 C166.901126,169.237958 166.902899,169.478449 166.95726,169.706531 C167.066574,170.16624 167.28402,170.516635 167.663369,170.868212 C168.554424,171.692498 169.474433,172.54101 169.746241,173.826186 C169.793512,174.051314 169.956005,174.249851 170.031639,174.472615 C170.543937,175.985283 171.335133,177.386273 171.590986,179.007072 C172.01406,181.689694 172.119829,184.36227 171.692028,187.042527 C171.453901,188.53156 171.26009,190.035364 170.653251,191.443444 C170.505529,191.786158 170.411578,192.16787 170.376716,192.538947 C170.309355,193.258645 170.016276,193.336051 169.464388,193.386868 C168.052762,193.516862 166.639955,193.62854 165.226556,193.734899 C164.312456,193.803442 163.973287,193.711855 163.915971,194.936761 C163.909472,195.075619 163.859837,195.214477 163.817293,195.349199 C163.732206,195.623961 163.532486,195.71023 163.270133,195.636961 C162.912647,195.537101 162.519708,195.508147 162.286308,195.145934 C162.156314,194.945033 161.989684,194.745314 161.716695,194.833947 C161.123445,195.026576 160.745278,194.746496 160.362975,194.334057 C159.847132,193.777443 159.156978,193.617904 158.418961,193.674038 C158.298421,193.682901 158.132973,193.771534 158.080975,193.871394 C157.979933,194.06875 158.119973,194.257833 158.281876,194.334648 C158.618681,194.494188 158.984439,194.591093 159.328925,194.73586 C159.451239,194.787267 159.593051,194.944442 159.508555,195.057302 C159.083117,195.630461 159.446512,196.039945 159.792771,196.418702 C160.062215,196.712373 160.173301,196.987725 160.202254,197.406072 C160.280251,198.532892 160.453381,199.655574 160.635374,200.772349 C160.741733,201.421732 160.84632,202.107159 161.262894,202.634229 C161.605608,203.06794 161.742694,203.534739 161.84728,204.049992 C161.921732,204.415159 162.051727,204.779145 162.217175,205.112995 C162.35426,205.390711 162.635522,205.480526 162.943373,205.381257 C163.206908,205.296761 163.311495,205.077542 163.289042,204.832324 C163.258906,204.506155 163.177955,204.184123 163.114139,203.860908 C163.06805,203.630463 162.997144,203.404154 162.968191,203.171935 C162.944555,202.979898 162.997144,202.776042 163.202181,202.712226 C163.319768,202.675591 163.498806,202.693318 163.596302,202.763043 C164.288229,203.257023 165.043381,203.694278 165.631313,204.294028 C166.69668,205.380076 167.302928,206.636299 166.89699,208.267143 C166.590911,209.497958 166.310831,210.751227 166.254697,212.032267 C166.210972,213.01491 165.838123,213.763562 164.846025,214.09564 C164.757393,214.125184 164.668169,214.163592 164.589581,214.214408 C164.110373,214.519305 163.978605,214.870291 164.154098,215.423951 C164.253958,215.740666 164.400498,216.004201 164.726667,216.188557 C165.405594,216.573224 165.402049,216.601587 165.200557,217.302968 C165.044563,217.844219 165.056381,218.326382 165.546816,218.702185 C165.868849,218.949176 165.932073,219.264709 165.964572,219.67892 C166.045524,220.710015 166.228698,221.736384 166.422509,222.75448 C166.491051,223.115511 166.639364,223.507268 166.872764,223.780257 C167.345472,224.333917 167.411651,224.957893 167.411651,225.630912 C167.411651,226.71755 167.440014,227.80478 167.43765,228.89201 C167.437059,229.315675 167.413424,229.743476 167.351972,230.161823 C166.933034,233.011665 166.476279,235.856189 166.087476,238.710167 C165.960436,239.642585 165.731172,240.563776 165.759535,241.521602 C165.846986,244.497302 165.904893,247.473594 165.97639,250.449885 C165.980526,250.631878 165.973435,250.822734 166.222198,251 C166.707316,250.768373 167.047075,250.308073 167.434696,249.917497 C169.530568,247.802717 171.616985,245.677892 173.705175,243.555431 C178.777929,238.401134 183.853638,233.250383 188.921074,228.09136 C194.352496,222.561851 199.773872,217.021706 205.204112,211.490425 C208.979281,207.645531 212.760359,203.805956 216.542028,199.968153 C222.414251,194.00907 228.285882,188.049397 234.164013,182.096814 C242.234922,173.924273 250.309966,165.755869 258.387374,157.589828 C261.644927,154.296821 264.917253,151.018587 268.175397,147.725581 C272.331096,143.526156 276.479705,139.31905 280.630086,135.113716 C280.895394,134.844272 281.15302,134.567147 281.398829,134.280567 C281.576685,134.073166 281.556595,133.830312 281.387011,133.636502 C281.045479,133.245335 280.686811,132.86835 280.322826,132.497274" id="Fill-762" fill="black"></path>
    </g>
</svg>